<?xml version="1.0" encoding="utf-8"?><svg xmlns="http://www.w3.org/2000/svg" xmlns:xlink="http://www.w3.org/1999/xlink"><symbol viewBox="0 0 20 20" id="braille"><circle cx="3.4" cy="3.1" r="1.8" class="aast0"/><circle cx="3.4" cy="9.7" r="1.8" class="aast0"/><circle cx="10" cy="3.1" r="1.8" class="aast0"/><circle cx="10" cy="9.7" r="1.8" class="aast0"/><circle cx="16.6" cy="3.1" r="1.8" class="aast0"/><circle cx="3.4" cy="16.3" r="1.8" class="aast0"/><circle cx="10" cy="16.3" r="1.8" class="aast0"/><circle cx="16.6" cy="16.3" r="1.8" class="aast0"/><circle cx="16.6" cy="9.7" r="1.8" class="aast0"/></symbol><symbol viewBox="0 0 20 20" id="briefcase"><path d="M8.1 1h3.8c.5 0 1.1.2 1.4.6.4.4.6.9.6 1.4v.6h1.5c1 0 1.9.4 2.5 1 .6.6 1 1.5 1 2.5v7.5c0 1-.4 1.9-1 2.5-.6.6-1.5 1-2.5 1H4.6c-1 0-1.9-.4-2.5-1-.6-.6-1-1.5-1-2.5V7.2c0-1 .4-1.9 1-2.5.6-.6 1.5-1 2.5-1h1.5V3c0-.5.2-1.1.6-1.4.3-.4.8-.6 1.4-.6zm5.5 4s-.1 0 0 0h-9c-.6 0-1.2.3-1.6.7-.4.4-.6.9-.6 1.5v3.3h2V9.3c0-.2.2-.4.4-.4h3c.2 0 .4.2.4.4v1.2h3.7V9.3c0-.2.2-.4.4-.4h2.9c.2 0 .4.2.4.4v1.2h2V7.2c0-.6-.2-1.1-.6-1.5-.4-.4-1-.7-1.6-.7h-1.8zM6.9 3.6h6.2V3c0-.3-.1-.6-.3-.8-.2-.2-.5-.4-.8-.4H8.1c-.3 0-.6.2-.8.4-.3.2-.4.5-.4.8v.6zm-4.5 7.8v3.3c0 .6.2 1.1.6 1.5.4.4.9.6 1.5.6h10.9c.6 0 1.1-.2 1.5-.6.4-.4.6-.9.6-1.5v-3.3h-2v1.2c0 .2-.2.4-.4.4h-3c-.2 0-.4-.2-.4-.4v-1.2H8.2v1.2c0 .2-.2.4-.5.4h-3c-.2 0-.4-.2-.4-.4v-1.2H2.4zm4.9-1.7H5.2v2.4h2.1V9.7zm7.5 0h-2.1v2.4h2.1V9.7z" class="abst0"/></symbol><symbol viewBox="108 0 20 20" id="bronze"><path d="M122.083 16.07l1.87.982a.228.228 0 0 0 .322-.28l-2.35-6.445c-.13-.327-.522-.523-.85-.393l-2.485.916c-.327.13-.523.523-.393.85l2.348 6.442a.228.228 0 0 0 .426.007l.796-1.965a.23.23 0 0 1 .317-.115zm-7.783.117l.795 1.964a.228.228 0 0 0 .426-.006l2.35-6.442c.13-.327-.066-.72-.394-.85l-2.486-.916c-.327-.13-.72.065-.85.393l-2.35 6.444a.228.228 0 0 0 .322.28l1.87-.982a.226.226 0 0 1 .318.115z"/><path d="M117.9 14.72l-2.32.192a1.21 1.21 0 0 1-1.114-.546l-1.247-1.92a1.23 1.23 0 0 0-.135-.17l-1.6-1.696a1.21 1.21 0 0 1-.274-1.19l.68-2.178c.018-.06.032-.122.04-.185l.342-2.34c.063-.436.358-.803.77-.958l2.18-.825a1.15 1.15 0 0 0 .185-.088l1.983-1.16a1.21 1.21 0 0 1 1.223 0l1.983 1.16c.06.034.12.064.184.088l2.18.824c.413.154.707.52.77.956l.342 2.34c.01.064.023.125.042.186l.678 2.178c.13.417.025.872-.275 1.19l-1.6 1.696a1.16 1.16 0 0 0-.133.17l-1.247 1.92a1.21 1.21 0 0 1-1.115.546l-2.32-.193a1.147 1.147 0 0 0-.202 0z"/><path d="M118 13.075c2.55 0 4.58-2.028 4.58-4.58s-2.028-4.58-4.58-4.58c-2.55 0-4.58 2.03-4.58 4.58s2.03 4.58 4.58 4.58z"/><path d="M117.215 7.45l-1.505-.263c.13-.458.327-.85.72-1.112s.85-.393 1.505-.393c.72 0 1.243.13 1.57.393.327.262.523.59.523 1.047 0 .262-.065.458-.196.654s-.327.393-.59.523c.197.064.394.13.524.195.196.13.327.262.458.458s.13.393.13.654c0 .327-.064.654-.26.916-.197.262-.394.523-.72.72-.328.196-.72.262-1.244.262s-.916-.065-1.178-.196a2.924 2.924 0 0 1-.72-.524c-.196-.196-.327-.523-.458-.85l1.57-.196c.065.327.13.523.262.654s.262.196.523.196c.195 0 .392-.065.522-.262.13-.196.196-.327.196-.59s-.065-.457-.196-.588a.742.742 0 0 0-.523-.196c-.132 0-.263 0-.524.065l.065-1.113h.197c.196 0 .393-.065.523-.196s.196-.26.196-.457-.065-.327-.13-.393-.263-.13-.394-.13a.594.594 0 0 0-.458.195c-.127.13-.324.262-.39.524z"/></symbol><symbol viewBox="0 0 20 20" id="camera"><path fill-rule="evenodd" d="M17.175 5.11h-2.2c-.522 0-1.636-2.175-2.22-2.175H7.23c-.584 0-1.698 2.174-2.22 2.174H2.825c-.914 0-1.656.73-1.656 1.63v8.694c0 .9.74 1.63 1.655 1.63h14.35c.915 0 1.657-.73 1.657-1.63V6.74a1.645 1.645 0 0 0-1.657-1.63zm.552 9.78c0 .6-.494 1.088-1.104 1.088H3.377c-.61 0-1.104-.487-1.104-1.087V7.284c0-.6.494-1.087 1.104-1.087h2.196c.51 0 1.62-2.174 2.203-2.174h4.406c.582 0 1.69 2.174 2.2 2.174h2.242c.61 0 1.104.487 1.104 1.087v7.608zM10 6.74c-2.134 0-3.864 1.702-3.864 3.803s1.73 3.804 3.864 3.804 3.864-1.703 3.864-3.804S12.134 6.74 10 6.74zm0 6.527c-1.528 0-2.766-1.22-2.766-2.723C7.234 9.04 8.472 7.82 10 7.82s2.766 1.22 2.766 2.723c0 1.504-1.238 2.724-2.766 2.724z" clip-rule="evenodd"/></symbol><symbol viewBox="0 0 20 20" id="checkin"><path fill-rule="evenodd" d="M10 5.464c-1.21 0-2.192 1.015-2.192 2.268S8.788 10 10 10c1.21 0 2.192-1.015 2.192-2.268 0-1.252-.98-2.268-2.192-2.268zm0 3.402c-.605 0-1.096-.508-1.096-1.134 0-.626.49-1.134 1.096-1.134.605 0 1.096.508 1.096 1.134 0 .627-.49 1.134-1.096 1.134zm0-7.938c-3.632 0-6.577 3.046-6.577 6.804 0 4.486 6.577 11.34 6.577 11.34s6.577-6.934 6.577-11.34C16.577 3.976 13.632.93 10 .93zM4.52 7.803c0-3.17 2.453-5.74 5.48-5.74 3.027 0 5.48 2.57 5.48 5.74 0 3.71-5.48 9.568-5.48 9.568s-5.48-5.82-5.48-9.567z" clip-rule="evenodd"/></symbol><symbol viewBox="0 0 20 20" id="checkmark-circled"><path fill-rule="evenodd" d="M9.915 1.208a8.878 8.878 0 1 0 0 17.756 8.878 8.878 0 0 0 0-17.756zm0 16.646a7.768 7.768 0 1 1 0-15.536 7.768 7.768 0 0 1 0 15.536zm2.978-9.828L9.36 11.56 7.492 9.69a.53.53 0 0 0-.747.747L8.88 12.57c.023.047.047.093.085.13a.527.527 0 0 0 .396.152.52.52 0 0 0 .396-.15c.038-.04.062-.085.086-.13l3.798-3.8a.53.53 0 0 0-.747-.746z" clip-rule="evenodd"/></symbol><symbol viewBox="0 0 20 20" id="compass"><path d="M10 1c-5 0-9 4-9 9s4 9 9 9 9-4 9-9-4-9-9-9zm0 16.6c-4.2 0-7.6-3.4-7.6-7.6 0-4.2 3.4-7.6 7.6-7.6 4.2 0 7.6 3.4 7.6 7.6s-3.4 7.6-7.6 7.6z" class="agst0"/><path d="M7.4 7L15 4.5c.3-.1.5 0 .6.3v.3L13 12.7c-.1.1-.2.3-.3.3l-7.6 2.5c-.3.1-.5-.1-.6-.3v-.3L7 7.3c.1-.1.2-.2.4-.3zm.5.9l-2.1 6.4 6.4-2.1-4.3-4.3z" class="agst0"/></symbol><symbol viewBox="0 0 20 20" id="contacts"><path fill-rule="evenodd" d="M16.435 8.21h1.79a.67.67 0 0 0 0-1.342h-1.79a.67.67 0 0 0 0 1.342zm-.894 5.553c-.92-.16-1.82-.49-2.227-.707 0-.964-.013-1.26-.017-1.47 1.037-1.222 1.695-2.886 1.695-4.382 0-3.398-1.68-6.153-5.035-6.153-3.35 0-5.036 2.756-5.036 6.154 0 1.493.647 3.144 1.673 4.36.002.536.003 1.368-.008 1.493-.41.214-1.306.546-2.226.705-1.104.19-2.474.673-3.284 2.735-.138.35-.088.73.134 1.043.83 1.164 5.21 1.408 8.74 1.408 3.527 0 7.907-.244 8.738-1.408a1.09 1.09 0 0 0 .135-1.043c-.81-2.06-2.18-2.544-3.282-2.734zm-9.506-6.56c0-2.78 1.312-5.034 3.92-5.034 2.612 0 3.922 2.253 3.922 5.033 0 2.273-1.755 5.034-3.92 5.034-2.166 0-3.922-2.75-3.922-5.034zm3.916 10.63c-6.827 0-7.763-.902-7.794-.938.628-1.6 1.57-1.888 2.407-2.032.986-.17 2.018-.532 2.573-.823l.55-.288.026-1.155c.676.47 1.437.76 2.244.76.802 0 1.558-.287 2.23-.753l.02 1.14.55.292c.548.29 1.584.655 2.582.828.835.144 1.778.432 2.412 2.03-.036.037-.973.938-7.8.938zm8.275-8.728h-2.237a.67.67 0 0 0 0 1.342h2.237a.67.67 0 0 0 0-1.342zm0 2.237h-3.58a.67.67 0 0 0 0 1.342h3.58a.67.67 0 1 0 0-1.342z" clip-rule="evenodd"/></symbol><symbol viewBox="0 0 20 20" id="contracts"><path d="M17.312 5.56h-.562V4.45c0-.92-.755-1.665-1.687-1.665H8.86c-.57 0-2.264-1.11-2.814-1.11H2.69C1.754 1.675 1 2.42 1 3.34v13.32c0 .92.755 1.665 1.688 1.665h14.625c.932 0 1.688-.745 1.688-1.665V7.225a1.677 1.677 0 0 0-1.688-1.665zM3.25 17.215a1.118 1.118 0 0 1-1.125-1.11V3.895c0-.613.504-1.11 1.125-1.11h2.808c.543 0 2.235 1.11 2.802 1.11h5.64c.62 0 1.125.497 1.125 1.11v.555H5.5c-.932 0-1.688.745-1.688 1.665v9.99H3.25zm14.625-1.11c0 .613-.504 1.11-1.125 1.11H4.938V7.78c0-.613.504-1.11 1.125-1.11H16.75c.62 0 1.125.497 1.125 1.11v8.325z"/></symbol><symbol viewBox="0 0 20 20" id="crm-ios"><path d="M2.345 1.062h5.157c.743 0 1.345.602 1.345 1.345v5.157c0 .743-.602 1.345-1.345 1.345H2.345A1.343 1.343 0 0 1 1 7.564V2.408c0-.743.602-1.346 1.345-1.346zm10.09 0h5.157c.743 0 1.345.602 1.345 1.345v5.157c0 .743-.602 1.345-1.345 1.345h-5.157a1.345 1.345 0 0 1-1.345-1.346V2.408c0-.743.602-1.346 1.345-1.346zm0 10.09h5.157c.743 0 1.345.602 1.345 1.345v5.157c0 .743-.602 1.345-1.345 1.345h-5.157a1.345 1.345 0 0 1-1.345-1.346v-5.157c0-.742.602-1.345 1.345-1.345zm-10.09 0h5.157c.743 0 1.345.602 1.345 1.345v5.157A1.344 1.344 0 0 1 7.502 19H2.345A1.345 1.345 0 0 1 1 17.655v-5.157c0-.743.602-1.346 1.345-1.346z" fill-rule="evenodd" clip-rule="evenodd"/></symbol><symbol viewBox="0 0 20 20" id="crm-ios-outline"><path fill-rule="evenodd" d="M7.502 11.152H2.345c-.743 0-1.345.603-1.345 1.346v5.157C1 18.398 1.602 19 2.345 19h5.157c.743 0 1.345-.602 1.345-1.345v-5.157a1.345 1.345 0 0 0-1.345-1.346zm.225 5.83a.898.898 0 0 1-.897.897H3.018a.898.898 0 0 1-.897-.898V13.17c0-.495.403-.897.898-.897H6.83c.495 0 .897.4.897.897v3.812zm-.225-15.92H2.345C1.602 1.062 1 1.665 1 2.408v5.157c0 .743.602 1.345 1.345 1.345h5.157c.743 0 1.345-.602 1.345-1.345V2.408a1.345 1.345 0 0 0-1.345-1.346zm.225 5.83a.898.898 0 0 1-.897.897H3.018a.898.898 0 0 1-.897-.898V3.08c0-.495.403-.897.898-.897H6.83c.495 0 .897.4.897.897v3.812zm9.865-5.83h-5.157c-.743 0-1.345.602-1.345 1.345v5.157c0 .743.602 1.345 1.345 1.345h5.157c.743 0 1.345-.603 1.345-1.346V2.408a1.345 1.345 0 0 0-1.345-1.346zm.224 5.83a.898.898 0 0 1-.897.897h-3.813a.898.898 0 0 1-.897-.898V3.08c0-.495.402-.897.897-.897h3.812c.494 0 .896.4.896.897v3.812zm-.224 4.26h-5.157c-.743 0-1.345.602-1.345 1.345v5.157c0 .743.602 1.345 1.345 1.345h5.157c.743 0 1.345-.603 1.345-1.346v-5.157a1.345 1.345 0 0 0-1.345-1.345zm.224 5.83a.898.898 0 0 1-.897.897h-3.813a.898.898 0 0 1-.897-.898V13.17c0-.495.402-.897.897-.897h3.812c.494 0 .896.4.896.897v3.812z" clip-rule="evenodd"/></symbol><symbol viewBox="0 0 20 20" id="down"><path d="M1.3 5.9c-.4.4-.4.8 0 1.1l8 8c.4.4 1 .4 1.4 0l7.9-7.9c.4-.4.5-.9.1-1.2-.3-.4-.7-.3-1.1.1L10 13.6 2.4 6s-.6-.7-1.1-.1z"/></symbol><symbol viewBox="0 0 20 20" id="funnel"><path d="M2.9 1.7h14.2c1 0 1.9.9 1.9 1.9 0 1-.9 1.9-1.9 1.9h-.2L12 10.4V15c0 .2-.1.4-.2.5L9.3 18c-.3.3-.7.3-1 0-.2 0-.3-.2-.3-.4v-7.2L3.1 5.5h-.2c-1 0-1.9-.9-1.9-1.9 0-1 .9-1.9 1.9-1.9zm14.2 2.4c.6 0 .7-1 0-1H2.9c-.7 0-.7 1 0 1h14.2zm-1.6.8h-11l4.7 4.7c.1.1.2.3.2.5v5.8l1.2-1.2v-4.6c0-.2.1-.4.2-.5l4.7-4.7z" class="amst0"/></symbol><symbol viewBox="108 0 20 20" id="gold"><path d="M121.86 15.953l1.96 1.03a.287.287 0 0 0 .402-.354l-2.297-6.303c-.13-.327-.523-.523-.85-.393l-2.486.916c-.328.13-.524.523-.394.85l2.296 6.298c.09.247.437.253.536.01l.832-2.055zm-7.654 0l.832 2.056a.287.287 0 0 0 .536-.01l2.296-6.298c.13-.327-.065-.72-.393-.85l-2.486-.916c-.326-.13-.72.065-.85.393l-2.296 6.3a.287.287 0 0 0 .403.354l1.96-1.03z"/><path d="M117.924 14.78l-2.368.148a1.21 1.21 0 0 1-1.083-.537l-1.257-1.885a1.213 1.213 0 0 0-.127-.16l-1.608-1.703a1.21 1.21 0 0 1-.277-1.183l.685-2.252c.017-.057.03-.115.04-.174l.34-2.283c.064-.433.358-.798.77-.954l2.172-.82c.07-.028.138-.06.202-.1l1.955-1.192a1.21 1.21 0 0 1 1.26 0l1.955 1.192c.064.04.132.072.202.1l2.173.82c.41.155.705.52.77.955l.34 2.284c.01.06.022.117.04.174l.684 2.25c.127.417.02.868-.277 1.184l-1.607 1.704a1.213 1.213 0 0 0-.127.16l-1.257 1.885c-.24.36-.652.565-1.083.538l-2.368-.148c-.05-.003-.1-.003-.15 0z"/><path d="M118 13.075c2.55 0 4.58-2.028 4.58-4.58s-2.03-4.58-4.58-4.58-4.58 2.03-4.58 4.58 2.03 4.58 4.58 4.58z"/><path d="M119.243 5.42v5.693h-1.57v-3.73c-.262.196-.523.327-.72.458-.196.132-.523.263-.916.328V6.86a7.46 7.46 0 0 0 1.243-.59c.327-.195.523-.522.72-.915h1.243v.066zM145.23 18.182l.797-1.966a.227.227 0 0 1 .317-.116l1.873.984a.227.227 0 0 0 .32-.28l-2.35-6.446c-.132-.327-.524-.523-.85-.393l-2.487.916c-.327.132-.523.524-.393.85l2.35 6.445c.07.195.345.2.424.007zm-6.735-1.9l.796 1.965a.228.228 0 0 0 .426-.007l2.35-6.444c.13-.327-.066-.72-.394-.85l-2.486-.916c-.327-.13-.72.065-.85.393l-2.35 6.447a.227.227 0 0 0 .32.28l1.872-.985a.227.227 0 0 1 .317.116z"/><path d="M142.095 14.813l-2.32.193a1.205 1.205 0 0 1-1.113-.545l-1.248-1.92a1.102 1.102 0 0 0-.134-.17l-1.6-1.697a1.206 1.206 0 0 1-.274-1.187l.678-2.18c.02-.06.033-.122.042-.184l.342-2.343c.063-.435.357-.8.768-.956L139.418 3c.063-.024.125-.053.183-.087l1.986-1.162a1.21 1.21 0 0 1 1.22 0l1.985 1.163c.06.034.12.064.184.087l2.183.825c.41.155.705.52.768.955l.342 2.343c.01.062.023.124.042.184l.677 2.18c.13.416.025.87-.274 1.187l-1.6 1.697c-.05.054-.094.11-.134.17l-1.25 1.922a1.205 1.205 0 0 1-1.11.545l-2.322-.193a1.252 1.252 0 0 0-.203 0z"/><path d="M142.195 13.17c2.55 0 4.58-2.028 4.58-4.58s-2.03-4.578-4.58-4.578c-2.55 0-4.58 2.028-4.58 4.58s2.03 4.578 4.58 4.578z"/><path d="M144.485 11.207h-4.71c.065-.458.196-.916.458-1.308.262-.394.785-.917 1.505-1.44.458-.327.72-.59.85-.785s.196-.327.196-.523-.065-.327-.196-.458-.262-.196-.458-.196-.393.065-.458.196-.196.327-.262.654l-1.57-.13c.065-.46.196-.786.327-1.048.13-.262.393-.458.72-.59s.72-.195 1.243-.195.98.065 1.308.196c.327.132.523.328.72.59.196.262.262.523.262.85s-.13.654-.327.98-.59.655-1.112 1.048c-.326.196-.522.393-.653.458s-.262.196-.393.327h2.42v1.374h.13zM170.08 16.113l1.8.945a.25.25 0 0 0 .352-.307l-2.33-6.392c-.13-.327-.523-.523-.85-.393l-2.486.916c-.327.132-.523.524-.393.85l2.33 6.39a.25.25 0 0 0 .465.008l.765-1.89a.25.25 0 0 1 .348-.125zm-7.794.127l.765 1.89a.25.25 0 0 0 .467-.01l2.33-6.388c.13-.327-.066-.72-.394-.85l-2.486-.916c-.327-.13-.72.065-.85.393l-2.33 6.392a.25.25 0 0 0 .35.307l1.8-.946a.248.248 0 0 1 .35.126z"/><path d="M165.877 14.75l-2.32.193a1.208 1.208 0 0 1-1.113-.546l-1.248-1.92a1.102 1.102 0 0 0-.134-.17l-1.6-1.697a1.21 1.21 0 0 1-.275-1.188l.678-2.18c.02-.06.033-.12.042-.184l.342-2.342c.062-.435.357-.8.768-.956l2.183-.825a1.14 1.14 0 0 0 .184-.088l1.984-1.16a1.207 1.207 0 0 1 1.22 0l1.985 1.16c.06.034.12.064.183.088l2.183.825c.41.155.704.52.768.956l.342 2.342c.01.063.023.124.042.185l.678 2.18c.13.415.025.87-.275 1.187l-1.6 1.697c-.05.053-.094.11-.134.17l-1.247 1.92c-.242.373-.67.583-1.113.546l-2.32-.193a1.147 1.147 0 0 0-.203 0z"/><path d="M165.977 13.106c2.55 0 4.58-2.028 4.58-4.58s-2.03-4.578-4.58-4.578c-2.55 0-4.58 2.028-4.58 4.58s2.03 4.578 4.58 4.578z"/><path d="M165.192 7.48l-1.505-.262c.13-.458.327-.85.72-1.112.393-.262.85-.393 1.505-.393.72 0 1.243.13 1.57.393.327.262.523.59.523 1.047 0 .262-.065.458-.196.654a1.54 1.54 0 0 1-.59.523c.196.065.393.13.523.196.196.13.327.262.458.458s.132.393.132.654c0 .327-.065.654-.262.916s-.393.523-.72.72c-.327.196-.72.262-1.243.262s-.916-.065-1.178-.196a2.924 2.924 0 0 1-.72-.523c-.197-.196-.328-.523-.46-.85l1.57-.196c.066.328.132.524.263.655s.262.196.523.196c.196 0 .393-.064.523-.26.13-.197.195-.328.195-.59s-.065-.458-.196-.59a.742.742 0 0 0-.524-.195c-.13 0-.262 0-.523.065l.065-1.112h.196a.74.74 0 0 0 .523-.196c.13-.13.196-.262.196-.458s-.065-.327-.13-.393-.263-.13-.394-.13c-.197 0-.328.065-.46.196s-.323.262-.388.524z"/></symbol><symbol viewBox="0 0 20 20" id="heart"><path d="M18.3 1c.4 0 .7.3.7.7v16.6c0 .2 0 .3-.1.4-.2.3-.7.4-1 .1l-4.2-3.1L10 13l-3.6 2.7-4.2 3.1c-.3.2-.8.2-1-.1-.2-.1-.2-.3-.2-.4V1.7c0-.4.3-.7.7-.7h16.6z"/></symbol><symbol viewBox="0 0 20 20" id="inbox"><path d="M18.848 5.576L10 1.152 1.168 5.568h-.016v8.856L10 18.848l8.848-4.424V5.576zM10 2.223l6.653 3.335-2.533 1.278L7.435 3.51 10 2.224zM6.275 4.138l6.77 3.263L10 8.878l-6.653-3.3 2.928-1.44zM2.258 6.695h.352l-.352-.013V6.13l7.19 3.594v7.742l-7.19-3.595V6.696zm15.484.54v6.636l-7.19 3.596V9.723l7.19-3.595v1.107z"/></symbol><symbol viewBox="0 0 20 20" id="leads"><path d="M18.525 9.432h-.597a7.948 7.948 0 0 0-7.36-7.36v-.597a.568.568 0 1 0-1.136 0v.595a7.95 7.95 0 0 0-7.36 7.362h-.597a.568.568 0 1 0 0 1.136h.597a7.948 7.948 0 0 0 7.36 7.36v.597a.568.568 0 0 0 1.136 0v-.595a7.948 7.948 0 0 0 7.36-7.36h.597a.568.568 0 1 0 0-1.138zm-2.273 1.136h.54a6.817 6.817 0 0 1-6.223 6.225v-.54a.568.568 0 1 0-1.137 0v.54a6.816 6.816 0 0 1-6.223-6.225h.54a.568.568 0 1 0 0-1.136h-.54a6.813 6.813 0 0 1 6.222-6.225v.54a.568.568 0 0 0 1.136 0v-.54a6.816 6.816 0 0 1 6.223 6.225h-.54a.568.568 0 1 0 .002 1.136z"/></symbol><symbol viewBox="0 0 20 20" id="map"><path d="M13.1 1.6l5.5 3.2c.2.1.4.3.4.6v12.5c0 .4-.3.7-.7.7-.2 0-.3 0-.4-.1l-5.1-3-5.2 3c-.2.1-.5.1-.7 0l-5.5-3.2c-.3-.1-.4-.3-.4-.6V2.2c0-.4.3-.7.7-.7.2 0 .3 0 .4.1l5.1 3 5.2-3c.2-.1.5-.1.7 0zm.1 1.6v11l4.4 2.6v-11l-4.4-2.6zm-.9 11v-11L7.6 5.9v11l4.7-2.7zM6.8 5.9L2.4 3.4v11L6.8 17V5.9z" class="arst0"/></symbol><symbol viewBox="0 0 20 20" id="me-ios"><path fill-rule="evenodd" d="M18.88 16.544c-.81-2.068-2.18-2.55-3.285-2.742-.922-.16-1.823-.492-2.23-.71 0-.965-.013-1.262-.017-1.472 1.038-1.224 1.696-2.892 1.696-4.392 0-3.405-1.684-6.166-5.04-6.166-3.354 0-5.04 2.76-5.04 6.166 0 1.496.65 3.15 1.675 4.37 0 .537.002 1.37-.01 1.497-.408.215-1.306.547-2.226.707-1.104.19-2.475.674-3.286 2.74a1.09 1.09 0 0 0 .135 1.047C2.086 18.754 6.47 19 10 19c3.53 0 7.915-.245 8.747-1.41a1.09 1.09 0 0 0 .134-1.046z" clip-rule="evenodd"/></symbol><symbol viewBox="0 0 20 20" id="me-ios-outline"><path fill-rule="evenodd" d="M18.88 16.544c-.81-2.068-2.18-2.55-3.285-2.742-.92-.16-1.823-.492-2.23-.71 0-.965-.012-1.262-.016-1.472 1.037-1.224 1.695-2.892 1.695-4.392 0-3.405-1.684-6.166-5.04-6.166-3.354 0-5.04 2.76-5.04 6.166 0 1.496.65 3.15 1.675 4.37.002.537.003 1.37-.008 1.497-.41.215-1.307.547-2.227.707-1.104.19-2.475.674-3.286 2.74-.14.353-.09.734.134 1.047C2.086 18.754 6.47 19 10 19c3.53 0 7.915-.245 8.747-1.41a1.09 1.09 0 0 0 .134-1.046zM6.08 7.228c0-2.786 1.314-5.045 3.925-5.045 2.613 0 3.924 2.26 3.924 5.045 0 2.278-1.758 5.045-3.925 5.045S6.08 9.518 6.08 7.228zM10 17.88c-6.833 0-7.77-.903-7.8-.94.628-1.604 1.572-1.892 2.408-2.036.987-.17 2.02-.533 2.575-.825l.55-.29.027-1.157c.677.47 1.438.76 2.246.76.803 0 1.56-.287 2.233-.754l.02 1.14.55.294c.548.292 1.584.656 2.583.83.836.144 1.78.433 2.414 2.034-.037.04-.974.942-7.807.942z" clip-rule="evenodd"/></symbol><symbol viewBox="0 0 20 20" id="money"><path d="M16.3 3.7c-1.6-1.6-3.8-2.6-6.3-2.6s-4.7 1-6.3 2.6C2.1 5.3 1.1 7.5 1.1 10s1 4.7 2.6 6.3c1.6 1.6 3.8 2.6 6.3 2.6s4.7-1 6.3-2.6c1.6-1.6 2.6-3.8 2.6-6.3s-1-4.7-2.6-6.3zm-1 11.6c-1.4 1.4-3.2 2.2-5.3 2.2-2.1 0-4-.8-5.3-2.2C3.3 14 2.5 12.1 2.5 10c0-2.1.8-4 2.2-5.3C6 3.3 7.9 2.5 10 2.5c2.1 0 4 .8 5.3 2.2 1.4 1.4 2.2 3.2 2.2 5.3 0 2.1-.8 4-2.2 5.3z" class="aust0"/><text transform="translate(6.25 15.574)" class="aust0 aust1 aust2">¥</text></symbol><symbol viewBox="0 0 20 20" id="opportunities"><path d="M10.07 1.062a8.97 8.97 0 0 0-8.97 8.97A8.968 8.968 0 0 0 10.07 19a8.97 8.97 0 1 0 0-17.938zm0 16.817a7.848 7.848 0 1 1 0-15.697 7.85 7.85 0 0 1 0 15.696zm.745-8.317c-.335-.14-1.567-.335-1.567-.873 0-.397.46-.512.738-.512.25 0 .553.08.712.238a.61.61 0 0 1 .176.265c.042.116.067.24.226.24h.82c.194 0 .244-.035.244-.247 0-.91-.712-1.42-1.525-1.598v-.707c0-.16-.05-.256-.244-.256h-.653c-.193 0-.243.097-.243.256v.68c-.872.167-1.6.715-1.6 1.703 0 1.122.778 1.475 1.625 1.758.712.238 1.458.247 1.458.74s-.37.6-.82.6c-.31 0-.655-.08-.822-.29a.62.62 0 0 1-.158-.362c-.017-.22-.11-.247-.302-.247h-.814c-.193 0-.243.043-.243.246 0 1.006.805 1.616 1.676 1.81v.688c0 .16.05.256.242.256h.654c.193 0 .243-.097.243-.256v-.67c.988-.15 1.667-.75 1.667-1.81 0-1.2-.888-1.456-1.492-1.65z"/></symbol><symbol viewBox="0 0 20 20" id="pen"><path fill-rule="evenodd" d="M5.516 15.045h4.933v-1.12H5.515v1.12zm4.932-3.363H5.516v1.12h4.933v-1.12zm4.036-2.243H5.516v1.12h8.97V9.44zm-1.68-8.41h-8.97c-.93 0-1.682.754-1.682 1.683v14.574c0 .93.753 1.682 1.682 1.682h8.632v-1.122h-8.07a1.12 1.12 0 0 1-1.122-1.12V3.272c0-.62.502-1.12 1.12-1.12h7.288v3.362c0 .93.753 1.682 1.682 1.682h3.363v6.39h1.12v-7.51L12.804 1.03zm1.12 5.046a1.12 1.12 0 0 1-1.12-1.12V2.712l3.362 3.363h-2.242zM5.516 8.318H8.88v-1.12H5.515v1.12zM8.88 4.955H5.515v1.12H8.88v-1.12zM17.4 15.38h-2.243v-2.24a.448.448 0 1 0-.896 0v2.24h-2.24a.448.448 0 1 0 0 .897h2.24v2.242a.448.448 0 1 0 .897 0v-2.243H17.4a.448.448 0 1 0 0-.896z" clip-rule="evenodd"/></symbol><symbol viewBox="0 0 20 20" id="phone"><path d="M5.8 1.6l2.4 3.1c.1.2.2.3.2.5.1.2.1.4 0 .6 0 .2-.1.4-.2.6 0 .3-.1.4-.3.5l-1.2.9c0 .2-.1.5.2 1 .5.7 1.1 1.4 1.7 2.1.6.6 1.3 1.2 2.1 1.7.5.3.8.2 1 .2l.9-1.2c.1-.2.3-.3.4-.4.2-.1.4-.2.6-.2h.6c.2 0 .4.1.5.3l3.1 2.4h.1c.1.1.3.3.4.5.1.2.2.4.2.6 0 .2 0 .4-.1.6-.1.2-.2.4-.4.5-.2.2-.4.4-.7.5-.3.2-.6.3-1 .5-1.7.6-3.5.5-5.3-.1-1.8-.6-3.6-1.8-5.1-3.2-1.5-1.5-2.6-3.2-3.2-5.1C2 6.8 1.9 5 2.5 3.3c.1-.4.3-.8.5-1 .1-.3.3-.6.5-.8.2-.1.3-.3.5-.4h.1c.2 0 .4-.1.6-.1.2 0 .4.1.6.2l.5.4zm1.5 3.9L4.8 2.4l-.1-.1h-.2s-.1 0-.1.1c-.1.1-.3.3-.4.5-.1.2-.2.5-.3.8-.5 1.4-.4 3 .1 4.5.6 1.7 1.6 3.3 2.9 4.6 1.3 1.3 2.9 2.4 4.6 2.9 1.5.5 3.1.6 4.5.1.3-.1.6-.2.8-.4.2-.1.4-.3.5-.4l.1-.1v-.2l-.1-.1-3.1-2.4H13.7l-.1.1-1 1.3c0 .1-.1.1-.2.2 0 0-1.1.8-2.5-.2-.8-.6-1.6-1.2-2.2-1.9-.7-.6-1.3-1.4-1.8-2.2-1-1.3-.2-2.4-.2-2.4 0-.1.1-.1.2-.2L7.2 6s.1 0 .1-.1v-.4c0 .1 0 .1 0 0zM5.8 1.6z"/></symbol><symbol viewBox="0 0 20 20" id="pie-chart"><path d="M15.5 16.1c-1.5 1.5-3.6 2.5-5.9 2.5-4.6 0-8.3-3.7-8.3-8.3S5 1.9 9.6 1.9v8.3l5.9 5.9z"/><path d="M10.5 9.3V1c4.6 0 8.3 3.7 8.3 8.3h-8.3zm8.4.7c0 2.3-.9 4.4-2.5 5.9L10.5 10h8.4z"/></symbol><symbol viewBox="0 0 20 20" id="plus"><path d="M8.3 2.7v5.6H2.7C1.8 8.3 1 9 1 10c0 .9.8 1.7 1.7 1.7h5.6v5.6c0 .9.7 1.7 1.7 1.7.9 0 1.7-.7 1.7-1.7v-5.6h5.6c.9 0 1.7-.8 1.7-1.7 0-.9-.8-1.7-1.7-1.7h-5.6V2.7c0-1-.8-1.7-1.7-1.7-.9 0-1.7.7-1.7 1.7z"/></symbol><symbol viewBox="0 0 20 20" id="remind"><path fill-rule="evenodd" d="M15.734 11.655h-1.147v1.115h1.147c.633 0 1.147.5 1.147 1.115S16.37 15 15.735 15H4.266c-.633 0-1.147-.5-1.147-1.115s.512-1.115 1.146-1.115h1.147v-1.115H4.266c-1.267 0-2.294.998-2.294 2.23s1.027 2.23 2.294 2.23h2.867c0 1.54 1.284 2.787 2.867 2.787s2.867-1.248 2.867-2.787h2.867c1.267 0 2.294-.998 2.294-2.23s-1.028-2.23-2.294-2.23zM10 17.787c-.95 0-1.72-.75-1.72-1.672h3.44c0 .924-.77 1.672-1.72 1.672zM5.413 6.637c0-2.462 2.054-4.46 4.587-4.46s4.587 1.998 4.587 4.46v5.01l1.145-.002V6.617c0-3.087-2.477-5.555-5.732-5.555-3.255 0-5.732 2.468-5.732 5.555v5.036h1.146V6.637z" clip-rule="evenodd"/></symbol><symbol viewBox="0 0 20 20" id="reorder"><path d="M8.883 7.208h-3.35v1.117h3.35V7.208zm0-2.234h-3.35V6.09h3.35V4.975zm-3.35 5.584h8.935V9.44H5.533v1.118zm7.26-9.493H3.856c-.925 0-1.675.75-1.675 1.675v14.52c0 .924.75 1.674 1.675 1.674h12.285c.925 0 1.675-.75 1.675-1.675V6.09l-5.025-5.025zm0 1.676l3.35 3.352H13.91c-.618 0-1.118-.5-1.118-1.117V2.74zM16.7 16.7c0 .618-.5 1.118-1.116 1.118H4.416c-.617 0-1.117-.5-1.117-1.117V3.3c0-.618.5-1.118 1.116-1.118h7.26v3.35c0 .926.75 1.676 1.674 1.676h3.35V16.7zM5.534 12.793h8.935v-1.117H5.533v1.117zm0 2.234h8.935V13.91H5.533v1.116z"/></symbol><symbol viewBox="0 0 20 20" id="reports-ios"><g fill-rule="evenodd" clip-rule="evenodd"><path d="M10.562 1.063A8.437 8.437 0 0 1 19 9.5h-8.438V1.063z"/><path d="M9.437 2.188c0 2.253-.007 8.433-.007 8.433s6.172.005 8.444.005a8.437 8.437 0 1 1-8.437-8.437z"/></g></symbol><symbol viewBox="0 0 20 20" id="reports-ios-outline"><path fill-rule="evenodd" d="M9.47 2.184a8.408 8.408 0 0 0-8.407 8.408A8.407 8.407 0 0 0 9.47 19a8.408 8.408 0 0 0 8.41-8.408c-2.265 0-8.416-.004-8.416-.004s.007-6.16.007-8.404zm7.203 9.524a7.288 7.288 0 1 1-8.345-8.314c0 3.732.016 8.315.016 8.315l8.33-.002zm-6.08-10.646V9.47H19a8.408 8.408 0 0 0-8.408-8.408zM11.7 2.267a7.292 7.292 0 0 1 6.09 6.057c-2.45 0-6.077.026-6.077.026S11.7 5.145 11.7 2.267z" clip-rule="evenodd"/></symbol><symbol viewBox="0 0 20 20" id="right"><path d="M6.8 18.7c.4.4.8.3 1.2-.1l8-8c.4-.4.4-1 0-1.4L8.1 1.4c-.4-.4-.9-.6-1.3-.2-.3.4-.2.8.2 1.2l7.6 7.6-7.7 7.6s-.6.6-.1 1.1z"/></symbol><symbol viewBox="0 0 20 20" id="search"><path fill-rule="evenodd" d="M18.793 17.974l-4.918-4.918a7.25 7.25 0 0 0 1.73-4.707 7.287 7.287 0 1 0-7.287 7.285 7.25 7.25 0 0 0 4.707-1.73l4.918 4.92a.6.6 0 1 0 .85-.85zM8.318 14.51a6.162 6.162 0 1 1 0-12.323 6.162 6.162 0 0 1 0 12.324z" clip-rule="evenodd"/></symbol><symbol viewBox="108 0 20 20" id="silver"><path d="M121.045 18.063l.782-1.932a.238.238 0 0 1 .33-.12l1.842.966a.237.237 0 0 0 .332-.292l-2.34-6.423c-.132-.326-.524-.522-.85-.392l-2.487.916c-.327.13-.523.523-.393.85l2.34 6.42a.237.237 0 0 0 .443.01zm-6.74-1.867l.78 1.932a.237.237 0 0 0 .444-.008l2.34-6.42c.13-.327-.066-.72-.394-.85l-2.486-.916c-.327-.13-.72.065-.85.393l-2.34 6.423a.238.238 0 0 0 .332.292l1.84-.966a.237.237 0 0 1 .332.12z"/><path d="M117.9 14.72l-2.318.192a1.213 1.213 0 0 1-1.118-.548l-1.246-1.917a1.31 1.31 0 0 0-.134-.17l-1.598-1.696a1.214 1.214 0 0 1-.276-1.19l.677-2.177c.02-.06.033-.123.042-.185l.34-2.34c.064-.435.36-.803.77-.958l2.18-.823a1.15 1.15 0 0 0 .185-.088l1.98-1.16a1.21 1.21 0 0 1 1.226 0l1.982 1.16c.06.033.12.063.184.087l2.18.823c.412.156.708.523.77.96l.342 2.338c.01.063.023.125.042.185l.677 2.176c.13.417.025.873-.276 1.19l-1.597 1.696a1.16 1.16 0 0 0-.134.17l-1.247 1.92a1.214 1.214 0 0 1-1.117.547l-2.317-.193a1.027 1.027 0 0 0-.2 0z"/><path d="M118 13.075c2.55 0 4.58-2.028 4.58-4.58s-2.028-4.58-4.58-4.58c-2.55 0-4.58 2.03-4.58 4.58s2.03 4.58 4.58 4.58z"/><path d="M120.29 11.112h-4.71c.065-.458.196-.916.458-1.308.262-.393.785-.916 1.505-1.44.458-.326.72-.588.85-.784.13-.196.196-.327.196-.523a.594.594 0 0 0-.197-.458.594.594 0 0 0-.458-.197c-.196 0-.393.065-.458.196s-.196.326-.262.653l-1.57-.13c.065-.46.196-.786.327-1.048.13-.262.393-.458.72-.59.327-.13.72-.195 1.243-.195.523 0 .98.065 1.308.196.327.13.523.327.72.59.196.26.262.522.262.85s-.13.653-.327.98c-.196.327-.59.654-1.112 1.047-.327.196-.523.393-.654.458s-.262.197-.393.328h2.42v1.374h.13z"/></symbol><symbol viewBox="0 0 20 20" id="sms"><path d="M13.97 19.47a.495.495 0 0 1-.388-.185l-1.835-2.242h-8.76a2.02 2.02 0 0 1-2.018-2.02V3.084c0-1.114.905-2.02 2.018-2.02h14.056c1.113 0 2.02.906 2.02 2.02v11.942a2.02 2.02 0 0 1-2.02 2.02h-1.95a.5.5 0 0 1 0-1h1.95a1.02 1.02 0 0 0 1.02-1.02V3.082a1.02 1.02 0 0 0-1.02-1.02H2.988a1.02 1.02 0 0 0-1.02 1.02v11.943a1.02 1.02 0 0 0 1.02 1.02h8.997c.15 0 .292.066.387.183l1.984 2.426a.5.5 0 0 1-.387.815z"/><circle cx="6.062" cy="8.979" r="1.021"/><circle cx="10" cy="8.979" r="1.021"/><circle cx="13.958" cy="8.979" r="1.021"/></symbol><symbol viewBox="0 0 20 20" id="sort-amount-desc"><path d="M8.3 15.7l-3.2 3.2c-.1 0-.2.1-.2.1s-.2 0-.2-.1l-3.2-3.2c-.1-.1-.1-.2-.1-.3s.2-.2.3-.2h1.9V1.4c0-.2.1-.3.3-.3h1.9c.2 0 .3.1.3.3v13.7H8c.2 0 .3.1.3.3.1.1 0 .2 0 .3zM18.9 3.3c0 .2-.1.3-.3.3h-8.3c-.2 0-.3-.1-.3-.3V1.4c0-.2.1-.3.3-.3h8.3c.2 0 .3.1.3.3v1.9zM17 8.4c0 .2-.1.3-.3.3h-6.4c-.2 0-.3-.1-.3-.3V6.5c0-.2.1-.3.3-.3h6.4c.2 0 .3.1.3.3v1.9zm-1.9 5.1c0 .2-.1.3-.3.3h-4.5c-.2 0-.3-.1-.3-.3v-1.9c0-.2.1-.3.3-.3h4.5c.2 0 .3.1.3.3v1.9zm-2 5.1c0 .2-.1.3-.3.3h-2.5c-.2 0-.3-.1-.3-.3v-1.9c0-.2.1-.3.3-.3h2.5c.2 0 .3.1.3.3v1.9z" class="bist0"/></symbol><symbol viewBox="0 0 20 20" id="success"><path d="M18.404 2c-5.4 3.403-9.314 7.7-11.076 9.854L3.018 8.38 1.114 9.958l7.45 7.792c1.28-3.378 5.34-9.978 10.3-14.668L18.404 2z"/></symbol><symbol viewBox="0 0 20 20" id="tasks-ios"><path fill-rule="evenodd" d="M10 1.062A8.97 8.97 0 1 0 10 19a8.97 8.97 0 0 0 0-17.938zm3.363 9.53H10a.56.56 0 0 1-.56-.56V5.546a.56.56 0 1 1 1.12 0V9.47h2.804a.56.56 0 1 1 0 1.122z" clip-rule="evenodd"/></symbol><symbol viewBox="0 0 20 20" id="tasks-ios-outline"><path fill-rule="evenodd" d="M13.363 9.47H10.56V5.548a.56.56 0 1 0-1.12 0v4.484c0 .31.25.562.56.562h3.363a.56.56 0 1 0 0-1.12zM10 1.063A8.97 8.97 0 1 0 10 19a8.97 8.97 0 0 0 0-17.938zm0 16.817A7.848 7.848 0 1 1 10 2.18a7.848 7.848 0 0 1 0 15.697z" clip-rule="evenodd"/></symbol><symbol viewBox="0 0 20 20" id="user"><path d="M10 1c1.6 0 3.1.7 4.2 1.7 1.1 1.1 1.7 2.5 1.7 4.2 0 1.6-.7 3.1-1.7 4.2-.2.2-.4.4-.6.5 1 .3 1.9.8 2.6 1.5 1 1 1.7 2.5 1.7 4.1v1.1c0 .4-.3.7-.7.7H2.9c-.4 0-.7-.3-.7-.7v-1.1c0-1.6.7-3.1 1.7-4.1.7-.7 1.6-1.2 2.6-1.5-.3-.2-.5-.4-.7-.6-1-1-1.7-2.5-1.7-4.1 0-1.6.7-3.1 1.7-4.2C6.9 1.7 8.4 1 10 1zm3.2 2.7c-.8-.8-1.9-1.3-3.2-1.3-1.2 0-2.4.5-3.2 1.3-.8.8-1.3 1.9-1.3 3.2 0 1.2.5 2.4 1.3 3.2.8.8 1.9 1.3 3.2 1.3 1.3 0 2.4-.5 3.2-1.3.8-.8 1.3-1.9 1.3-3.2 0-1.3-.5-2.4-1.3-3.2zM12 12.8H8c-1.2 0-2.3.5-3.1 1.3-.8.8-1.3 1.9-1.3 3.1v.4h12.9v-.4c0-1.2-.5-2.3-1.3-3.1-.9-.8-2-1.3-3.2-1.3z" class="bmst0"/></symbol><symbol viewBox="0 0 20 20" id="users"><path fill-rule="evenodd" d="M10 1.03S3.273 7.808 3.273 12.243a6.727 6.727 0 0 0 13.454 0C16.727 7.887 10 1.032 10 1.032zm0 16.818c-3.096 0-5.605-2.54-5.605-5.676 0-3.705 5.605-9.46 5.605-9.46s5.606 5.792 5.606 9.46c0 3.135-2.51 5.676-5.606 5.676z" clip-rule="evenodd"/></symbol><symbol viewBox="0 0 20 20" id="vip"><path d="M.317 2.254v1.45h2.285l7.63 14.042 7.85-14.04h1.602V2.253H16.76l-4.99 8.45-4.694-8.45H.316z"/></symbol><symbol viewBox="0 0 20 20" id="wiki"><defs><path id="bpa" d="M-136.043-210.174c0 .6-.487 1.087-1.087 1.087 0 0-2.49-1.087-4.543-1.087-2.284 0-4.152 1.087-4.152 1.087-.6 0-1.087-.487-1.087-1.087v-20.108c0-.67 1.268-1.686 4.89-1.63 2.104.032 4.636.667 5.98 2.174v19.564zM-142.02-233c-2.175-.03-5.98.576-5.98 2.718v20.108c0 1.2.974 2.174 2.175 2.174 0 0 2.015-1.087 4.106-1.087 2.252 0 4.59 1.087 4.59 1.087 1.2 0 2.174-.973 2.174-2.174v-19.564c-.672-2.31-4.145-3.218-7.065-3.26z"/></defs><clipPath id="bpb"><use xlink:href="#bpa" overflow="visible"/></clipPath><g clip-path="url(#bpb)"><defs><path id="bpc" d="M-173-322h375v667h-375z"/></defs><clipPath id="bpd"><use xlink:href="#bpc" overflow="visible"/></clipPath><path d="M-153-238h23.044v35H-153z" clip-path="url(#bpd)"/></g><defs><path id="bpe" d="M-124.087-210.174c0 .6-.487 1.087-1.087 1.087 0 0-1.868-1.087-4.152-1.087-2.052 0-4.543 1.087-4.543 1.087-.6 0-1.086-.487-1.086-1.087v-19.564c1.343-1.507 3.875-2.142 5.978-2.174 3.623-.055 4.89.96 4.89 1.63v20.108zM-128.98-233c-2.92.044-6.392.95-7.064 3.262v19.564c0 1.2.973 2.174 2.174 2.174 0 0 2.338-1.087 4.59-1.087 2.09 0 4.105 1.087 4.105 1.087 1.2 0 2.174-.973 2.174-2.174v-20.108c0-2.142-3.805-2.748-5.98-2.717z"/></defs><clipPath id="bpf"><use xlink:href="#bpe" overflow="visible"/></clipPath><g clip-path="url(#bpf)"><defs><path id="bpg" d="M-173-322h375v667h-375z"/></defs><clipPath id="bph"><use xlink:href="#bpg" overflow="visible"/></clipPath><path d="M-141.043-238H-118v35h-23.043z" clip-path="url(#bph)"/></g><defs><path id="bpi" d="M-137.043-213.174c0 .6-.487 1.087-1.087 1.087 0 0-2.49-1.087-4.543-1.087-2.284 0-4.152 1.087-4.152 1.087-.6 0-1.087-.487-1.087-1.087v-20.108c0-.67 1.268-1.686 4.89-1.63 2.104.032 4.636.667 5.98 2.174v19.564zM-143.02-236c-2.175-.03-5.98.576-5.98 2.718v20.108c0 1.2.974 2.174 2.175 2.174 0 0 2.015-1.087 4.106-1.087 2.252 0 4.59 1.087 4.59 1.087 1.2 0 2.174-.973 2.174-2.174v-19.564c-.672-2.31-4.145-3.218-7.065-3.26z"/></defs><clipPath id="bpj"><use xlink:href="#bpi" overflow="visible"/></clipPath><g clip-path="url(#bpj)"><defs><path id="bpk" d="M-174-325h375v667h-375z"/></defs><clipPath id="bpl"><use xlink:href="#bpk" overflow="visible"/></clipPath><path d="M-154-241h23.044v35H-154z" clip-path="url(#bpl)"/></g><defs><path id="bpm" d="M-125.087-213.174c0 .6-.487 1.087-1.087 1.087 0 0-1.868-1.087-4.152-1.087-2.052 0-4.543 1.087-4.543 1.087-.6 0-1.086-.487-1.086-1.087v-19.564c1.343-1.507 3.875-2.142 5.978-2.174 3.623-.055 4.89.96 4.89 1.63v20.108zM-129.98-236c-2.92.044-6.392.95-7.064 3.262v19.564c0 1.2.973 2.174 2.174 2.174 0 0 2.338-1.087 4.59-1.087 2.09 0 4.105 1.087 4.105 1.087 1.2 0 2.174-.973 2.174-2.174v-20.108c0-2.142-3.805-2.748-5.98-2.717z"/></defs><clipPath id="bpn"><use xlink:href="#bpm" overflow="visible"/></clipPath><g clip-path="url(#bpn)"><defs><path id="bpo" d="M-174-325h375v667h-375z"/></defs><clipPath id="bpp"><use xlink:href="#bpo" overflow="visible"/></clipPath><path d="M-142.043-241H-119v35h-23.043z" clip-path="url(#bpp)"/></g><defs><path id="bpq" d="M-142.043-214.174c0 .6-.487 1.087-1.087 1.087 0 0-2.49-1.087-4.543-1.087-2.284 0-4.152 1.087-4.152 1.087-.6 0-1.087-.487-1.087-1.087v-20.108c0-.67 1.268-1.686 4.89-1.63 2.104.032 4.636.667 5.98 2.174v19.564zM-148.02-237c-2.175-.03-5.98.576-5.98 2.718v20.108c0 1.2.974 2.174 2.175 2.174 0 0 2.015-1.087 4.106-1.087 2.252 0 4.59 1.087 4.59 1.087 1.2 0 2.174-.973 2.174-2.174v-19.564c-.672-2.31-4.145-3.218-7.065-3.26z"/></defs><clipPath id="bpr"><use xlink:href="#bpq" overflow="visible"/></clipPath><g clip-path="url(#bpr)"><defs><path id="bps" d="M-179-326h375v667h-375z"/></defs><clipPath id="bpt"><use xlink:href="#bps" overflow="visible"/></clipPath><path d="M-159-242h23.044v35H-159z" clip-path="url(#bpt)"/></g><g><defs><path id="bpu" d="M-130.087-214.174c0 .6-.487 1.087-1.087 1.087 0 0-1.868-1.087-4.152-1.087-2.052 0-4.543 1.087-4.543 1.087-.6 0-1.086-.487-1.086-1.087v-19.564c1.343-1.507 3.875-2.142 5.978-2.174 3.623-.055 4.89.96 4.89 1.63v20.108zM-134.98-237c-2.92.044-6.392.95-7.064 3.262v19.564c0 1.2.973 2.174 2.174 2.174 0 0 2.338-1.087 4.59-1.087 2.09 0 4.105 1.087 4.105 1.087 1.2 0 2.174-.973 2.174-2.174v-20.108c0-2.142-3.805-2.748-5.98-2.717z"/></defs><clipPath id="bpv"><use xlink:href="#bpu" overflow="visible"/></clipPath><g clip-path="url(#bpv)"><defs><path id="bpw" d="M-179-326h375v667h-375z"/></defs><clipPath id="bpx"><use xlink:href="#bpw" overflow="visible"/></clipPath><path d="M-147.043-242H-124v35h-23.043z" clip-path="url(#bpx)"/></g></g><g><defs><path id="bpy" d="M-142.043-214.174c0 .6-.487 1.087-1.087 1.087 0 0-2.49-1.087-4.543-1.087-2.284 0-4.152 1.087-4.152 1.087-.6 0-1.087-.487-1.087-1.087v-20.108c0-.67 1.268-1.686 4.89-1.63 2.104.032 4.636.667 5.98 2.174v19.564zM-148.02-237c-2.175-.03-5.98.576-5.98 2.718v20.108c0 1.2.974 2.174 2.175 2.174 0 0 2.015-1.087 4.106-1.087 2.252 0 4.59 1.087 4.59 1.087 1.2 0 2.174-.973 2.174-2.174v-19.564c-.672-2.31-4.145-3.218-7.065-3.26z"/></defs><clipPath id="bpz"><use xlink:href="#bpy" overflow="visible"/></clipPath><g clip-path="url(#bpz)"><defs><path id="bpA" d="M-179-326h375v667h-375z"/></defs><clipPath id="bpB"><use xlink:href="#bpA" overflow="visible"/></clipPath><path d="M-159-242h23.044v35H-159z" clip-path="url(#bpB)"/></g></g><g><defs><path id="bpC" d="M-130.087-214.174c0 .6-.487 1.087-1.087 1.087 0 0-1.868-1.087-4.152-1.087-2.052 0-4.543 1.087-4.543 1.087-.6 0-1.086-.487-1.086-1.087v-19.564c1.343-1.507 3.875-2.142 5.978-2.174 3.623-.055 4.89.96 4.89 1.63v20.108zM-134.98-237c-2.92.044-6.392.95-7.064 3.262v19.564c0 1.2.973 2.174 2.174 2.174 0 0 2.338-1.087 4.59-1.087 2.09 0 4.105 1.087 4.105 1.087 1.2 0 2.174-.973 2.174-2.174v-20.108c0-2.142-3.805-2.748-5.98-2.717z"/></defs><clipPath id="bpD"><use xlink:href="#bpC" overflow="visible"/></clipPath><g clip-path="url(#bpD)"><defs><path id="bpE" d="M-179-326h375v667h-375z"/></defs><clipPath id="bpF"><use xlink:href="#bpE" overflow="visible"/></clipPath><path d="M-147.043-242H-124v35h-23.043z" clip-path="url(#bpF)"/></g></g><g><path d="M5.328 1.03c-1.563-.02-4.297.415-4.297 1.954v14.453c0 .863.7 1.562 1.563 1.562 0 0 1.448-.78 2.95-.78 1.62 0 3.3.78 3.3.78.863 0 1.562-.7 1.562-1.563V3.375c-.482-1.66-2.98-2.313-5.077-2.344zm4.296 16.407c0 .43-.35.78-.78.78 0 0-1.792-.78-3.267-.78-1.64 0-2.984.78-2.984.78a.78.78 0 0 1-.78-.78V2.984c0-.48.91-1.212 3.515-1.172 1.512.024 3.33.48 4.297 1.563v14.063z"/><path d="M14.702 1.03c-2.1.032-4.595.684-5.078 2.345v14.062c0 .863.7 1.562 1.562 1.562 0 0 1.68-.78 3.3-.78 1.502 0 2.95.78 2.95.78.863 0 1.562-.7 1.562-1.563V2.984C19 1.444 16.265 1.01 14.702 1.03zm3.516 16.407c0 .43-.35.78-.78.78 0 0-1.344-.78-2.985-.78-1.475 0-3.266.78-3.266.78a.78.78 0 0 1-.78-.78V3.375c.965-1.083 2.784-1.54 4.296-1.562 2.604-.04 3.516.69 3.516 1.172v14.452z"/></g></symbol><symbol viewBox="0 0 20 20" id="work-reporter"><path d="M13.415 14.484h-6.83a.565.565 0 0 0-.57.56c0 .31.256.562.57.562h6.83a.565.565 0 0 0 .57-.56.565.565 0 0 0-.57-.562zm2.277-10.65h-1.138a1.13 1.13 0 0 0-1.138-1.12h-.57V2.15a1.13 1.13 0 0 0-1.137-1.12H8.29a1.13 1.13 0 0 0-1.138 1.12v.56h-.57a1.13 1.13 0 0 0-1.137 1.122h-1.14c-.942 0-1.707.753-1.707 1.682v11.77c0 .93.764 1.683 1.708 1.683H15.69c.944 0 1.71-.754 1.71-1.683V5.517c0-.93-.765-1.683-1.708-1.683zm-8.253 0h.853v-.56c0-.62.51-1.122 1.138-1.122h1.14a1.13 1.13 0 0 1 1.137 1.12v.562h.854c.473 0 .855.376.855.84a.848.848 0 0 1-.854.842H7.44a.848.848 0 0 1-.855-.84c0-.466.382-.842.854-.842zm8.82 12.893a1.13 1.13 0 0 1-1.137 1.12H4.877a1.13 1.13 0 0 1-1.138-1.12V6.077c0-.62.51-1.122 1.137-1.122h.57v.56c0 .62.51 1.122 1.137 1.122h6.83c.692 0 .937-.583 1.114-1.137.062-.194.025-.384.025-.544h.57a1.13 1.13 0 0 1 1.137 1.12v10.65zm-2.845-5.045h-6.83a.565.565 0 0 0-.57.56c0 .31.256.562.57.562h6.83a.565.565 0 0 0 .57-.56.565.565 0 0 0-.57-.562zm0-2.803h-6.83a.565.565 0 0 0-.57.56c0 .31.256.56.57.56h6.83a.565.565 0 0 0 .57-.56.565.565 0 0 0-.57-.56z"/></symbol><symbol viewBox="-489 491 20 20" id="social_share"><g fill="none" stroke="#fff" stroke-width="1" stroke-miterlimit="10"><circle cx="-473.8" cy="495.8" r="3.8"/><circle cx="-485" cy="504" r="3"/><circle cx="-474.2" cy="507.8" r="2.2"/><path stroke-linecap="round" stroke-linejoin="round" d="M-477 498.2l-5 3.9M-482 504.5l5.5 2.5"/></g></symbol><symbol viewBox="0 0 1024 1024" id="expense_account" p-id="7506"><path d="M211.6352 49.536A60.3136 60.3136 0 0 0 151.552 110.1056v791.68a60.3136 60.3136 0 0 0 60.0832 60.5696h600.7296a60.3136 60.3136 0 0 0 60.0832-60.5696V110.1056a60.3136 60.3136 0 0 0-60.0832-60.5696H211.6352z m0-49.536h600.7296C872.704 0 921.6 49.3056 921.6 110.1056v791.68c0 60.8-48.896 110.1056-109.2352 110.1056H211.6352C151.296 1011.8912 102.4 962.5856 102.4 901.7856V110.1056C102.4 49.3056 151.296 0 211.6352 0z" fill="#FFFFFF" p-id="7507"></path><path d="M225.28 297.2928h182.528c13.568 0 24.576-11.0848 24.576-24.7808a24.6784 24.6784 0 0 0-24.576-24.7808H225.28c-13.568 0-24.576 11.1104-24.576 24.7808 0 13.696 11.008 24.7808 24.576 24.7808zM225.28 462.464h237.1328c13.568 0 24.576-11.1104 24.576-24.7808a24.6784 24.6784 0 0 0-24.576-24.7808H225.28c-13.568 0-24.576 11.0848-24.576 24.7808 0 13.6704 11.008 24.7808 24.576 24.7808zM225.28 627.6096h323.5584c13.568 0 24.576-11.0848 24.576-24.7808a24.6784 24.6784 0 0 0-24.576-24.7552H225.28c-13.568 0-24.576 11.0848-24.576 24.7552 0 13.696 11.008 24.7808 24.576 24.7808zM225.28 809.2928h560.8192c13.568 0 24.576-11.0848 24.576-24.7808a24.6784 24.6784 0 0 0-24.576-24.7808H225.28c-13.568 0-24.576 11.1104-24.576 24.7808 0 13.696 11.008 24.7808 24.576 24.7808zM610.304 346.8288h160.9728c13.568 0 24.576-11.0848 24.576-24.7552a24.6784 24.6784 0 0 0-24.576-24.7808H610.304c-13.568 0-24.576 11.0848-24.576 24.7808 0 13.6704 11.008 24.7552 24.576 24.7552zM593.92 445.952h193.7408c13.568 0 24.576-11.1104 24.576-24.7808a24.6784 24.6784 0 0 0-24.576-24.7808H593.92c-13.568 0-24.576 11.0848-24.576 24.7808 0 13.6704 11.008 24.7552 24.576 24.7552z" fill="#FFFFFF" p-id="7508"></path><path d="M603.8016 252.7232l68.4032 69.3248a24.448 24.448 0 0 0 34.7392 0.0768 24.9088 24.9088 0 0 0 0.1024-35.0208l-68.4032-69.3248a24.448 24.448 0 0 0-34.7392-0.1024 24.9088 24.9088 0 0 0-0.1024 35.0464z" fill="#FFFFFF" p-id="7509"></path><path d="M775.3216 252.7232l-68.4032 69.3248a24.448 24.448 0 0 1-34.7648 0.0768 24.9088 24.9088 0 0 1-0.0768-35.0208l68.3776-69.3248a24.448 24.448 0 0 1 34.7648-0.1024c9.6256 9.6512 9.6768 25.344 0.1024 35.0464z" fill="#FFFFFF" p-id="7510"></path><path d="M659.456 313.8048v199.5008c0 13.6704 11.008 24.7552 24.576 24.7552s24.576-11.0848 24.576-24.7552v-199.5008a24.6784 24.6784 0 0 0-24.576-24.7808c-13.568 0-24.576 11.1104-24.576 24.7808z" fill="#FFFFFF" p-id="7511"></path></symbol></svg>
